<mxfile host="app.diagrams.net" modified="2023-10-23T08:05:29.456Z" agent="Mozilla/5.0 (Windows NT 10.0; Win64; x64; rv:109.0) Gecko/20100101 Firefox/118.0" etag="yJDyT2LIUzaOfCH5hW89" version="22.0.6" type="github">
  <diagram id="C5RBs43oDa-KdzZeNtuy" name="Page-1">
    <mxGraphModel dx="2577" dy="930" grid="1" gridSize="10" guides="1" tooltips="1" connect="1" arrows="1" fold="1" page="1" pageScale="1" pageWidth="827" pageHeight="1169" math="0" shadow="0">
      <root>
        <mxCell id="WIyWlLk6GJQsqaUBKTNV-0" />
        <mxCell id="WIyWlLk6GJQsqaUBKTNV-1" parent="WIyWlLk6GJQsqaUBKTNV-0" />
        <mxCell id="xlBU8newwTKrscxf5Coa-59" value="" style="rounded=0;whiteSpace=wrap;html=1;fillColor=#dae8fc;strokeColor=#6c8ebf;" vertex="1" parent="WIyWlLk6GJQsqaUBKTNV-1">
          <mxGeometry x="-80" y="80" width="550" height="320" as="geometry" />
        </mxCell>
        <mxCell id="xlBU8newwTKrscxf5Coa-60" style="edgeStyle=orthogonalEdgeStyle;rounded=1;sketch=0;orthogonalLoop=1;jettySize=auto;html=1;exitX=0.5;exitY=0;exitDx=0;exitDy=0;entryX=0.5;entryY=1;entryDx=0;entryDy=0;shadow=0;fontColor=#3333FF;endArrow=block;endFill=0;" edge="1" parent="WIyWlLk6GJQsqaUBKTNV-1" source="xlBU8newwTKrscxf5Coa-61" target="xlBU8newwTKrscxf5Coa-70">
          <mxGeometry relative="1" as="geometry" />
        </mxCell>
        <mxCell id="xlBU8newwTKrscxf5Coa-61" value="Vacation" style="swimlane;fontStyle=1;align=center;verticalAlign=top;childLayout=stackLayout;horizontal=1;startSize=26;horizontalStack=0;resizeParent=1;resizeParentMax=0;resizeLast=0;collapsible=1;marginBottom=0;" vertex="1" parent="WIyWlLk6GJQsqaUBKTNV-1">
          <mxGeometry x="1000" y="560" width="160" height="105" as="geometry" />
        </mxCell>
        <mxCell id="xlBU8newwTKrscxf5Coa-62" value="+ allInclusive: bool" style="text;strokeColor=none;fillColor=none;align=left;verticalAlign=top;spacingLeft=4;spacingRight=4;overflow=hidden;rotatable=0;points=[[0,0.5],[1,0.5]];portConstraint=eastwest;" vertex="1" parent="xlBU8newwTKrscxf5Coa-61">
          <mxGeometry y="26" width="160" height="26" as="geometry" />
        </mxCell>
        <mxCell id="xlBU8newwTKrscxf5Coa-63" value="" style="line;strokeWidth=1;fillColor=none;align=left;verticalAlign=middle;spacingTop=-1;spacingLeft=3;spacingRight=3;rotatable=0;labelPosition=right;points=[];portConstraint=eastwest;strokeColor=inherit;" vertex="1" parent="xlBU8newwTKrscxf5Coa-61">
          <mxGeometry y="52" width="160" height="8" as="geometry" />
        </mxCell>
        <mxCell id="xlBU8newwTKrscxf5Coa-64" value="+ Vacation(allInclusive)&#xa;+ GetInfo(): string" style="text;strokeColor=none;fillColor=none;align=left;verticalAlign=top;spacingLeft=4;spacingRight=4;overflow=hidden;rotatable=0;points=[[0,0.5],[1,0.5]];portConstraint=eastwest;" vertex="1" parent="xlBU8newwTKrscxf5Coa-61">
          <mxGeometry y="60" width="160" height="45" as="geometry" />
        </mxCell>
        <mxCell id="xlBU8newwTKrscxf5Coa-65" style="edgeStyle=orthogonalEdgeStyle;rounded=1;sketch=0;orthogonalLoop=1;jettySize=auto;html=1;exitX=0.5;exitY=0;exitDx=0;exitDy=0;entryX=0.5;entryY=1;entryDx=0;entryDy=0;shadow=0;fontColor=#3333FF;endArrow=block;endFill=0;" edge="1" parent="WIyWlLk6GJQsqaUBKTNV-1" source="xlBU8newwTKrscxf5Coa-66" target="xlBU8newwTKrscxf5Coa-70">
          <mxGeometry relative="1" as="geometry" />
        </mxCell>
        <mxCell id="xlBU8newwTKrscxf5Coa-66" value="WorkTrip" style="swimlane;fontStyle=1;align=center;verticalAlign=top;childLayout=stackLayout;horizontal=1;startSize=26;horizontalStack=0;resizeParent=1;resizeParentMax=0;resizeLast=0;collapsible=1;marginBottom=0;" vertex="1" parent="WIyWlLk6GJQsqaUBKTNV-1">
          <mxGeometry x="720" y="560" width="160" height="105" as="geometry" />
        </mxCell>
        <mxCell id="xlBU8newwTKrscxf5Coa-67" value="+ meetingDetails: string" style="text;strokeColor=none;fillColor=none;align=left;verticalAlign=top;spacingLeft=4;spacingRight=4;overflow=hidden;rotatable=0;points=[[0,0.5],[1,0.5]];portConstraint=eastwest;" vertex="1" parent="xlBU8newwTKrscxf5Coa-66">
          <mxGeometry y="26" width="160" height="26" as="geometry" />
        </mxCell>
        <mxCell id="xlBU8newwTKrscxf5Coa-68" value="" style="line;strokeWidth=1;fillColor=none;align=left;verticalAlign=middle;spacingTop=-1;spacingLeft=3;spacingRight=3;rotatable=0;labelPosition=right;points=[];portConstraint=eastwest;strokeColor=inherit;" vertex="1" parent="xlBU8newwTKrscxf5Coa-66">
          <mxGeometry y="52" width="160" height="8" as="geometry" />
        </mxCell>
        <mxCell id="xlBU8newwTKrscxf5Coa-69" value="+ Trip(meetingDetails)&#xa;+ GetInfo(): string" style="text;strokeColor=none;fillColor=none;align=left;verticalAlign=top;spacingLeft=4;spacingRight=4;overflow=hidden;rotatable=0;points=[[0,0.5],[1,0.5]];portConstraint=eastwest;" vertex="1" parent="xlBU8newwTKrscxf5Coa-66">
          <mxGeometry y="60" width="160" height="45" as="geometry" />
        </mxCell>
        <mxCell id="xlBU8newwTKrscxf5Coa-70" value="Travel" style="swimlane;fontStyle=1;align=center;verticalAlign=top;childLayout=stackLayout;horizontal=1;startSize=26;horizontalStack=0;resizeParent=1;resizeParentMax=0;resizeLast=0;collapsible=1;marginBottom=0;" vertex="1" parent="WIyWlLk6GJQsqaUBKTNV-1">
          <mxGeometry x="840" y="290" width="210" height="199" as="geometry" />
        </mxCell>
        <mxCell id="xlBU8newwTKrscxf5Coa-71" value="+ destination: string&#xa;+ country: Countries&#xa;+ travellers: int&#xa;+ packingList: List&lt;PackingListItem&gt;&#xa;+ startDate: DateTime&#xa;+ endDate: DateTime&#xa;+ travelDays: int" style="text;strokeColor=none;fillColor=none;align=left;verticalAlign=top;spacingLeft=4;spacingRight=4;overflow=hidden;rotatable=0;points=[[0,0.5],[1,0.5]];portConstraint=eastwest;" vertex="1" parent="xlBU8newwTKrscxf5Coa-70">
          <mxGeometry y="26" width="210" height="110" as="geometry" />
        </mxCell>
        <mxCell id="xlBU8newwTKrscxf5Coa-72" value="" style="line;strokeWidth=1;fillColor=none;align=left;verticalAlign=middle;spacingTop=-1;spacingLeft=3;spacingRight=3;rotatable=0;labelPosition=right;points=[];portConstraint=eastwest;strokeColor=inherit;" vertex="1" parent="xlBU8newwTKrscxf5Coa-70">
          <mxGeometry y="136" width="210" height="8" as="geometry" />
        </mxCell>
        <mxCell id="xlBU8newwTKrscxf5Coa-73" value="+ Travel({Props})&#xa;{virtual} + GetInfo(): string&#xa;- calculateTravelDays(): int" style="text;strokeColor=none;fillColor=none;align=left;verticalAlign=top;spacingLeft=4;spacingRight=4;overflow=hidden;rotatable=0;points=[[0,0.5],[1,0.5]];portConstraint=eastwest;" vertex="1" parent="xlBU8newwTKrscxf5Coa-70">
          <mxGeometry y="144" width="210" height="55" as="geometry" />
        </mxCell>
        <mxCell id="xlBU8newwTKrscxf5Coa-74" style="edgeStyle=orthogonalEdgeStyle;rounded=1;sketch=0;orthogonalLoop=1;jettySize=auto;html=1;exitX=0.5;exitY=0;exitDx=0;exitDy=0;shadow=0;fontColor=#000000;endArrow=block;endFill=0;entryX=0.5;entryY=1;entryDx=0;entryDy=0;" edge="1" parent="WIyWlLk6GJQsqaUBKTNV-1" source="xlBU8newwTKrscxf5Coa-75" target="xlBU8newwTKrscxf5Coa-113">
          <mxGeometry relative="1" as="geometry">
            <mxPoint x="130" y="480" as="targetPoint" />
          </mxGeometry>
        </mxCell>
        <mxCell id="xlBU8newwTKrscxf5Coa-75" value="TravelDocument" style="swimlane;fontStyle=1;align=center;verticalAlign=top;childLayout=stackLayout;horizontal=1;startSize=26;horizontalStack=0;resizeParent=1;resizeParentMax=0;resizeLast=0;collapsible=1;marginBottom=0;" vertex="1" parent="WIyWlLk6GJQsqaUBKTNV-1">
          <mxGeometry x="-60" y="270" width="180" height="105" as="geometry" />
        </mxCell>
        <mxCell id="xlBU8newwTKrscxf5Coa-76" value="+ required: bool" style="text;strokeColor=none;fillColor=none;align=left;verticalAlign=top;spacingLeft=4;spacingRight=4;overflow=hidden;rotatable=0;points=[[0,0.5],[1,0.5]];portConstraint=eastwest;" vertex="1" parent="xlBU8newwTKrscxf5Coa-75">
          <mxGeometry y="26" width="180" height="26" as="geometry" />
        </mxCell>
        <mxCell id="xlBU8newwTKrscxf5Coa-77" value="" style="line;strokeWidth=1;fillColor=none;align=left;verticalAlign=middle;spacingTop=-1;spacingLeft=3;spacingRight=3;rotatable=0;labelPosition=right;points=[];portConstraint=eastwest;strokeColor=inherit;" vertex="1" parent="xlBU8newwTKrscxf5Coa-75">
          <mxGeometry y="52" width="180" height="8" as="geometry" />
        </mxCell>
        <mxCell id="xlBU8newwTKrscxf5Coa-78" value="+ Document(name, required)&#xa;+ GetInfo(): string" style="text;strokeColor=none;fillColor=none;align=left;verticalAlign=top;spacingLeft=4;spacingRight=4;overflow=hidden;rotatable=0;points=[[0,0.5],[1,0.5]];portConstraint=eastwest;" vertex="1" parent="xlBU8newwTKrscxf5Coa-75">
          <mxGeometry y="60" width="180" height="45" as="geometry" />
        </mxCell>
        <mxCell id="xlBU8newwTKrscxf5Coa-79" value="TravelManager" style="swimlane;fontStyle=1;align=center;verticalAlign=top;childLayout=stackLayout;horizontal=1;startSize=26;horizontalStack=0;resizeParent=1;resizeParentMax=0;resizeLast=0;collapsible=1;marginBottom=0;" vertex="1" parent="WIyWlLk6GJQsqaUBKTNV-1">
          <mxGeometry x="540" y="290" width="240" height="105" as="geometry">
            <mxRectangle x="615.63" y="159" width="120" height="30" as="alternateBounds" />
          </mxGeometry>
        </mxCell>
        <mxCell id="xlBU8newwTKrscxf5Coa-80" value="+ travels: List&lt;Travel&gt;" style="text;strokeColor=none;fillColor=none;align=left;verticalAlign=top;spacingLeft=4;spacingRight=4;overflow=hidden;rotatable=0;points=[[0,0.5],[1,0.5]];portConstraint=eastwest;" vertex="1" parent="xlBU8newwTKrscxf5Coa-79">
          <mxGeometry y="26" width="240" height="26" as="geometry" />
        </mxCell>
        <mxCell id="xlBU8newwTKrscxf5Coa-81" value="" style="line;strokeWidth=1;fillColor=none;align=left;verticalAlign=middle;spacingTop=-1;spacingLeft=3;spacingRight=3;rotatable=0;labelPosition=right;points=[];portConstraint=eastwest;strokeColor=inherit;" vertex="1" parent="xlBU8newwTKrscxf5Coa-79">
          <mxGeometry y="52" width="240" height="8" as="geometry" />
        </mxCell>
        <mxCell id="xlBU8newwTKrscxf5Coa-82" value="+ addTravel(Travel): void&#xa;+ removeTravel(Travel): void" style="text;strokeColor=none;fillColor=none;align=left;verticalAlign=top;spacingLeft=4;spacingRight=4;overflow=hidden;rotatable=0;points=[[0,0.5],[1,0.5]];portConstraint=eastwest;" vertex="1" parent="xlBU8newwTKrscxf5Coa-79">
          <mxGeometry y="60" width="240" height="45" as="geometry" />
        </mxCell>
        <mxCell id="xlBU8newwTKrscxf5Coa-83" value="Ingår för betyget VG" style="text;html=1;strokeColor=none;fillColor=none;align=left;verticalAlign=middle;whiteSpace=wrap;rounded=0;" vertex="1" parent="WIyWlLk6GJQsqaUBKTNV-1">
          <mxGeometry x="-80" y="50" width="160" height="30" as="geometry" />
        </mxCell>
        <mxCell id="xlBU8newwTKrscxf5Coa-84" value="Country" style="swimlane;fontStyle=0;childLayout=stackLayout;horizontal=1;startSize=26;fillColor=none;horizontalStack=0;resizeParent=1;resizeParentMax=0;resizeLast=0;collapsible=1;marginBottom=0;" vertex="1" parent="WIyWlLk6GJQsqaUBKTNV-1">
          <mxGeometry x="1440" y="460" width="140" height="52" as="geometry" />
        </mxCell>
        <mxCell id="xlBU8newwTKrscxf5Coa-85" value="{Massor med länder}" style="text;strokeColor=none;fillColor=none;align=left;verticalAlign=top;spacingLeft=4;spacingRight=4;overflow=hidden;rotatable=0;points=[[0,0.5],[1,0.5]];portConstraint=eastwest;" vertex="1" parent="xlBU8newwTKrscxf5Coa-84">
          <mxGeometry y="26" width="140" height="26" as="geometry" />
        </mxCell>
        <mxCell id="xlBU8newwTKrscxf5Coa-86" value="Enum" style="text;html=1;strokeColor=none;fillColor=none;align=left;verticalAlign=middle;whiteSpace=wrap;rounded=0;" vertex="1" parent="WIyWlLk6GJQsqaUBKTNV-1">
          <mxGeometry x="1440" y="430" width="142.5" height="30" as="geometry" />
        </mxCell>
        <mxCell id="xlBU8newwTKrscxf5Coa-87" style="edgeStyle=orthogonalEdgeStyle;rounded=1;sketch=0;orthogonalLoop=1;jettySize=auto;html=1;exitX=0.5;exitY=0;exitDx=0;exitDy=0;entryX=0.5;entryY=1;entryDx=0;entryDy=0;shadow=0;fontColor=#000000;endArrow=block;endFill=0;" edge="1" parent="WIyWlLk6GJQsqaUBKTNV-1" source="xlBU8newwTKrscxf5Coa-88" target="xlBU8newwTKrscxf5Coa-106">
          <mxGeometry relative="1" as="geometry" />
        </mxCell>
        <mxCell id="xlBU8newwTKrscxf5Coa-88" value="User" style="swimlane;fontStyle=1;align=center;verticalAlign=top;childLayout=stackLayout;horizontal=1;startSize=26;horizontalStack=0;resizeParent=1;resizeParentMax=0;resizeLast=0;collapsible=1;marginBottom=0;" vertex="1" parent="WIyWlLk6GJQsqaUBKTNV-1">
          <mxGeometry x="1250" y="270" width="140" height="56" as="geometry" />
        </mxCell>
        <mxCell id="xlBU8newwTKrscxf5Coa-89" value="+ travels: List&lt;Travel&gt;" style="text;strokeColor=none;fillColor=none;align=left;verticalAlign=top;spacingLeft=4;spacingRight=4;overflow=hidden;rotatable=0;points=[[0,0.5],[1,0.5]];portConstraint=eastwest;" vertex="1" parent="xlBU8newwTKrscxf5Coa-88">
          <mxGeometry y="26" width="140" height="30" as="geometry" />
        </mxCell>
        <mxCell id="xlBU8newwTKrscxf5Coa-90" value="UserManager" style="swimlane;fontStyle=1;align=center;verticalAlign=top;childLayout=stackLayout;horizontal=1;startSize=26;horizontalStack=0;resizeParent=1;resizeParentMax=0;resizeLast=0;collapsible=1;marginBottom=0;" vertex="1" parent="WIyWlLk6GJQsqaUBKTNV-1">
          <mxGeometry x="1040" y="20" width="250.62" height="168" as="geometry" />
        </mxCell>
        <mxCell id="xlBU8newwTKrscxf5Coa-91" value="+ users: List&lt;IUser&gt;&#xa;+ signedInUser: IUser" style="text;strokeColor=none;fillColor=none;align=left;verticalAlign=top;spacingLeft=4;spacingRight=4;overflow=hidden;rotatable=0;points=[[0,0.5],[1,0.5]];portConstraint=eastwest;" vertex="1" parent="xlBU8newwTKrscxf5Coa-90">
          <mxGeometry y="26" width="250.62" height="40" as="geometry" />
        </mxCell>
        <mxCell id="xlBU8newwTKrscxf5Coa-92" value="" style="line;strokeWidth=1;fillColor=none;align=left;verticalAlign=middle;spacingTop=-1;spacingLeft=3;spacingRight=3;rotatable=0;labelPosition=right;points=[];portConstraint=eastwest;strokeColor=inherit;" vertex="1" parent="xlBU8newwTKrscxf5Coa-90">
          <mxGeometry y="66" width="250.62" height="8" as="geometry" />
        </mxCell>
        <mxCell id="xlBU8newwTKrscxf5Coa-93" value="+ addUser(IUser): bool&#xa;+ removeUser(IUser): void&#xa;+ updateUsername (IUser, string): bool&#xa;- validateUsername (username): bool&#xa;+ signInUser (username, password): bool" style="text;strokeColor=none;fillColor=none;align=left;verticalAlign=top;spacingLeft=4;spacingRight=4;overflow=hidden;rotatable=0;points=[[0,0.5],[1,0.5]];portConstraint=eastwest;" vertex="1" parent="xlBU8newwTKrscxf5Coa-90">
          <mxGeometry y="74" width="250.62" height="94" as="geometry" />
        </mxCell>
        <mxCell id="xlBU8newwTKrscxf5Coa-94" value="packingList endast för VG." style="text;html=1;strokeColor=#6c8ebf;fillColor=#dae8fc;align=left;verticalAlign=middle;whiteSpace=wrap;rounded=0;direction=west;flipV=1;flipH=1;" vertex="1" parent="WIyWlLk6GJQsqaUBKTNV-1">
          <mxGeometry x="840" y="200" width="210" height="20" as="geometry" />
        </mxCell>
        <mxCell id="xlBU8newwTKrscxf5Coa-95" value="EuropeanCountry" style="swimlane;fontStyle=0;childLayout=stackLayout;horizontal=1;startSize=26;fillColor=none;horizontalStack=0;resizeParent=1;resizeParentMax=0;resizeLast=0;collapsible=1;marginBottom=0;" vertex="1" parent="WIyWlLk6GJQsqaUBKTNV-1">
          <mxGeometry x="1250" y="460" width="160" height="52" as="geometry" />
        </mxCell>
        <mxCell id="xlBU8newwTKrscxf5Coa-96" value="{Några länder med i EU}" style="text;strokeColor=none;fillColor=none;align=left;verticalAlign=top;spacingLeft=4;spacingRight=4;overflow=hidden;rotatable=0;points=[[0,0.5],[1,0.5]];portConstraint=eastwest;" vertex="1" parent="xlBU8newwTKrscxf5Coa-95">
          <mxGeometry y="26" width="160" height="26" as="geometry" />
        </mxCell>
        <mxCell id="xlBU8newwTKrscxf5Coa-97" value="Enum" style="text;html=1;strokeColor=none;fillColor=none;align=left;verticalAlign=middle;whiteSpace=wrap;rounded=0;" vertex="1" parent="WIyWlLk6GJQsqaUBKTNV-1">
          <mxGeometry x="1250" y="430" width="140" height="30" as="geometry" />
        </mxCell>
        <mxCell id="xlBU8newwTKrscxf5Coa-98" style="edgeStyle=orthogonalEdgeStyle;rounded=1;sketch=0;orthogonalLoop=1;jettySize=auto;html=1;exitX=0.5;exitY=1;exitDx=0;exitDy=0;shadow=0;fontColor=#3333FF;endArrow=block;endFill=1;" edge="1" parent="WIyWlLk6GJQsqaUBKTNV-1">
          <mxGeometry relative="1" as="geometry">
            <mxPoint x="1520" y="460" as="sourcePoint" />
            <mxPoint x="1520" y="460" as="targetPoint" />
          </mxGeometry>
        </mxCell>
        <mxCell id="xlBU8newwTKrscxf5Coa-99" style="edgeStyle=orthogonalEdgeStyle;rounded=1;sketch=0;orthogonalLoop=1;jettySize=auto;html=1;exitX=0.5;exitY=0;exitDx=0;exitDy=0;entryX=0.5;entryY=1;entryDx=0;entryDy=0;shadow=0;fontColor=#000000;endArrow=block;endFill=0;" edge="1" parent="WIyWlLk6GJQsqaUBKTNV-1" source="xlBU8newwTKrscxf5Coa-100" target="xlBU8newwTKrscxf5Coa-113">
          <mxGeometry relative="1" as="geometry">
            <mxPoint x="185.00000000000023" y="220" as="targetPoint" />
          </mxGeometry>
        </mxCell>
        <mxCell id="xlBU8newwTKrscxf5Coa-100" value="OtherItem" style="swimlane;fontStyle=1;align=center;verticalAlign=top;childLayout=stackLayout;horizontal=1;startSize=26;horizontalStack=0;resizeParent=1;resizeParentMax=0;resizeLast=0;collapsible=1;marginBottom=0;" vertex="1" parent="WIyWlLk6GJQsqaUBKTNV-1">
          <mxGeometry x="270" y="270" width="180" height="105" as="geometry" />
        </mxCell>
        <mxCell id="xlBU8newwTKrscxf5Coa-101" value="+ quantity: int" style="text;strokeColor=none;fillColor=none;align=left;verticalAlign=top;spacingLeft=4;spacingRight=4;overflow=hidden;rotatable=0;points=[[0,0.5],[1,0.5]];portConstraint=eastwest;" vertex="1" parent="xlBU8newwTKrscxf5Coa-100">
          <mxGeometry y="26" width="180" height="26" as="geometry" />
        </mxCell>
        <mxCell id="xlBU8newwTKrscxf5Coa-102" value="" style="line;strokeWidth=1;fillColor=none;align=left;verticalAlign=middle;spacingTop=-1;spacingLeft=3;spacingRight=3;rotatable=0;labelPosition=right;points=[];portConstraint=eastwest;strokeColor=inherit;" vertex="1" parent="xlBU8newwTKrscxf5Coa-100">
          <mxGeometry y="52" width="180" height="8" as="geometry" />
        </mxCell>
        <mxCell id="xlBU8newwTKrscxf5Coa-103" value="+ OtherItem(name, quantity)&#xa;+ GetInfo(): string" style="text;strokeColor=none;fillColor=none;align=left;verticalAlign=top;spacingLeft=4;spacingRight=4;overflow=hidden;rotatable=0;points=[[0,0.5],[1,0.5]];portConstraint=eastwest;" vertex="1" parent="xlBU8newwTKrscxf5Coa-100">
          <mxGeometry y="60" width="180" height="45" as="geometry" />
        </mxCell>
        <mxCell id="xlBU8newwTKrscxf5Coa-104" style="edgeStyle=orthogonalEdgeStyle;rounded=1;sketch=0;orthogonalLoop=1;jettySize=auto;html=1;exitX=0.5;exitY=0;exitDx=0;exitDy=0;entryX=0.5;entryY=1;entryDx=0;entryDy=0;shadow=0;fontColor=#000000;endArrow=block;endFill=0;" edge="1" parent="WIyWlLk6GJQsqaUBKTNV-1" source="xlBU8newwTKrscxf5Coa-105" target="xlBU8newwTKrscxf5Coa-106">
          <mxGeometry relative="1" as="geometry" />
        </mxCell>
        <mxCell id="xlBU8newwTKrscxf5Coa-105" value="Admin" style="swimlane;fontStyle=1;align=center;verticalAlign=top;childLayout=stackLayout;horizontal=1;startSize=26;horizontalStack=0;resizeParent=1;resizeParentMax=0;resizeLast=0;collapsible=1;marginBottom=0;" vertex="1" parent="WIyWlLk6GJQsqaUBKTNV-1">
          <mxGeometry x="1550" y="270" width="140" height="34" as="geometry" />
        </mxCell>
        <mxCell id="xlBU8newwTKrscxf5Coa-106" value="&lt;p style=&quot;margin:0px;margin-top:4px;text-align:center;&quot;&gt;&lt;i&gt;&amp;lt;&amp;lt;Interface&amp;gt;&amp;gt;&lt;/i&gt;&lt;br&gt;&lt;b&gt;IUser&lt;/b&gt;&lt;/p&gt;&lt;hr size=&quot;1&quot;&gt;&lt;p style=&quot;margin:0px;margin-left:4px;&quot;&gt;+ username: string&lt;br&gt;+ pasword: string&lt;/p&gt;&lt;p style=&quot;margin:0px;margin-left:4px;&quot;&gt;+ location: Country&lt;/p&gt;&lt;hr size=&quot;1&quot;&gt;&lt;p style=&quot;margin:0px;margin-left:4px;&quot;&gt;+ IUser(username, password, location)&lt;br&gt;&lt;/p&gt;" style="verticalAlign=top;align=left;overflow=fill;fontSize=12;fontFamily=Helvetica;html=1;fontColor=#000000;" vertex="1" parent="WIyWlLk6GJQsqaUBKTNV-1">
          <mxGeometry x="1350" y="50" width="230" height="130" as="geometry" />
        </mxCell>
        <mxCell id="xlBU8newwTKrscxf5Coa-107" value="Relation" style="endArrow=open;html=1;endSize=12;startArrow=diamondThin;startSize=14;startFill=0;edgeStyle=orthogonalEdgeStyle;rounded=1;shadow=0;sketch=0;fontColor=none;exitX=1;exitY=0.5;exitDx=0;exitDy=0;entryX=0;entryY=0.5;entryDx=0;entryDy=0;noLabel=1;labelBackgroundColor=default;" edge="1" parent="WIyWlLk6GJQsqaUBKTNV-1" source="xlBU8newwTKrscxf5Coa-80" target="xlBU8newwTKrscxf5Coa-71">
          <mxGeometry relative="1" as="geometry">
            <mxPoint x="710" y="410" as="sourcePoint" />
            <mxPoint x="760" y="400" as="targetPoint" />
          </mxGeometry>
        </mxCell>
        <mxCell id="xlBU8newwTKrscxf5Coa-108" value="1" style="edgeLabel;resizable=0;html=1;align=left;verticalAlign=top;fontColor=#000000;" connectable="0" vertex="1" parent="xlBU8newwTKrscxf5Coa-107">
          <mxGeometry x="-1" relative="1" as="geometry" />
        </mxCell>
        <mxCell id="xlBU8newwTKrscxf5Coa-109" value="*" style="edgeLabel;resizable=0;html=1;align=right;verticalAlign=top;fontColor=#000000;" connectable="0" vertex="1" parent="xlBU8newwTKrscxf5Coa-107">
          <mxGeometry x="1" relative="1" as="geometry" />
        </mxCell>
        <mxCell id="xlBU8newwTKrscxf5Coa-110" value="" style="endArrow=open;html=1;endSize=12;startArrow=diamondThin;startSize=14;startFill=0;edgeStyle=orthogonalEdgeStyle;rounded=1;shadow=0;labelBackgroundColor=default;sketch=0;fontColor=none;exitX=1;exitY=0.5;exitDx=0;exitDy=0;entryX=0;entryY=0.25;entryDx=0;entryDy=0;" edge="1" parent="WIyWlLk6GJQsqaUBKTNV-1" source="xlBU8newwTKrscxf5Coa-91" target="xlBU8newwTKrscxf5Coa-106">
          <mxGeometry relative="1" as="geometry">
            <mxPoint x="1150" y="160" as="sourcePoint" />
            <mxPoint x="1310" y="160" as="targetPoint" />
          </mxGeometry>
        </mxCell>
        <mxCell id="xlBU8newwTKrscxf5Coa-111" value="1" style="edgeLabel;resizable=0;html=1;align=left;verticalAlign=top;fontColor=none;" connectable="0" vertex="1" parent="xlBU8newwTKrscxf5Coa-110">
          <mxGeometry x="-1" relative="1" as="geometry" />
        </mxCell>
        <mxCell id="xlBU8newwTKrscxf5Coa-112" value="*" style="edgeLabel;resizable=0;html=1;align=right;verticalAlign=top;fontColor=none;" connectable="0" vertex="1" parent="xlBU8newwTKrscxf5Coa-110">
          <mxGeometry x="1" relative="1" as="geometry" />
        </mxCell>
        <mxCell id="xlBU8newwTKrscxf5Coa-113" value="&lt;p style=&quot;margin:0px;margin-top:4px;text-align:center;&quot;&gt;&lt;i&gt;&amp;lt;&amp;lt;Interface&amp;gt;&amp;gt;&lt;/i&gt;&lt;br&gt;&lt;b&gt;PackingListItem&lt;/b&gt;&lt;/p&gt;&lt;hr size=&quot;1&quot;&gt;&lt;p style=&quot;margin:0px;margin-left:4px;&quot;&gt;+ name: string&lt;br&gt;&lt;/p&gt;&lt;hr size=&quot;1&quot;&gt;&lt;p style=&quot;margin:0px;margin-left:4px;&quot;&gt;+ GetInfo(): string&lt;br&gt;&lt;/p&gt;" style="verticalAlign=top;align=left;overflow=fill;fontSize=12;fontFamily=Helvetica;html=1;fontColor=#000000;" vertex="1" parent="WIyWlLk6GJQsqaUBKTNV-1">
          <mxGeometry x="70" y="90" width="230" height="130" as="geometry" />
        </mxCell>
        <mxCell id="xlBU8newwTKrscxf5Coa-114" value="quantity endast nice-to-have." style="text;html=1;strokeColor=#82b366;fillColor=#d5e8d4;align=left;verticalAlign=middle;whiteSpace=wrap;rounded=0;direction=west;flipV=1;flipH=1;" vertex="1" parent="WIyWlLk6GJQsqaUBKTNV-1">
          <mxGeometry x="260" y="420" width="210" height="20" as="geometry" />
        </mxCell>
        <mxCell id="xlBU8newwTKrscxf5Coa-115" value="startDate, endDate, travelDays och calculatetravelDays ingår endast för nice-to-have." style="text;whiteSpace=wrap;html=1;fillColor=#d5e8d4;strokeColor=#82b366;" vertex="1" parent="WIyWlLk6GJQsqaUBKTNV-1">
          <mxGeometry x="840" y="220" width="210" height="50" as="geometry" />
        </mxCell>
        <mxCell id="xlBU8newwTKrscxf5Coa-116" value="Länder endast för VG" style="text;html=1;strokeColor=#6c8ebf;fillColor=#dae8fc;align=left;verticalAlign=middle;whiteSpace=wrap;rounded=0;direction=west;flipV=1;flipH=1;" vertex="1" parent="WIyWlLk6GJQsqaUBKTNV-1">
          <mxGeometry x="1250" y="530" width="330" height="20" as="geometry" />
        </mxCell>
        <mxCell id="xlBU8newwTKrscxf5Coa-117" value="location endast VG" style="text;html=1;strokeColor=#6c8ebf;fillColor=#dae8fc;align=left;verticalAlign=middle;whiteSpace=wrap;rounded=0;direction=west;flipV=1;flipH=1;" vertex="1" parent="WIyWlLk6GJQsqaUBKTNV-1">
          <mxGeometry x="1350" y="20" width="230" height="20" as="geometry" />
        </mxCell>
      </root>
    </mxGraphModel>
  </diagram>
</mxfile>
